<svg version="1.1" id="Layer_1" xmlns="http://www.w3.org/2000/svg" xmlns:xlink="http://www.w3.org/1999/xlink" x="0px" y="0px"
	 width="100%" viewBox="0 0 496 432" enable-background="new 0 0 496 432" xml:space="preserve">
<path fill="#fff" opacity="1.000000" stroke="none" 
	d="
M408.275269,330.765045 
	C408.979980,331.508087 409.419983,332.019836 409.939728,332.430817 
	C411.964355,334.031860 413.935608,335.670074 412.747620,338.669830 
	C411.982239,340.602386 410.839233,342.273956 408.511688,342.410767 
	C405.529297,342.586090 403.940704,340.529083 402.805634,338.263184 
	C399.456085,331.576904 393.246552,327.319672 389.648987,321.584869 
	C387.392273,321.404968 386.879425,322.583710 386.239746,323.509247 
	C383.117767,328.026550 380.108337,332.623840 376.901520,337.079407 
	C375.072449,339.620728 374.990295,341.687714 377.126801,344.192963 
	C381.945496,349.843323 385.854340,356.265717 392.146576,360.635162 
	C393.654175,361.682098 394.474426,363.834717 395.387360,365.594727 
	C396.719910,368.163666 396.096283,370.626892 393.922302,372.322144 
	C391.344177,374.332581 389.495392,372.175751 388.017731,370.472015 
	C383.001831,364.688782 377.682190,359.151245 373.501556,352.672150 
	C371.991791,350.332306 370.541107,348.020020 366.816925,348.627991 
	C364.167450,349.060547 362.861420,346.780457 363.449341,344.318817 
	C364.308594,340.720947 362.705872,338.366547 360.517212,335.844482 
	C355.283051,329.813110 350.249298,323.606567 345.186096,317.428589 
	C342.911407,314.653137 343.104950,311.702057 345.677856,309.398132 
	C348.798035,306.604095 350.771667,309.141052 352.532257,311.509766 
	C357.102844,317.659119 361.684387,323.800995 366.181824,330.003693 
	C368.422150,333.093506 370.292389,333.296570 372.657837,330.010986 
	C375.868439,325.551453 378.013580,320.393311 381.830353,316.336121 
	C383.184784,314.896362 382.728638,313.254211 381.744873,311.735077 
	C377.240295,304.779053 372.100494,298.236450 368.396637,290.202545 
	C365.238953,292.713074 362.558777,294.880463 359.840668,296.999207 
	C335.835815,315.711029 308.482666,326.607971 278.431702,329.901062 
	C255.785721,332.382721 233.223740,330.514435 211.356155,323.314606 
	C205.905212,321.519928 204.555466,322.311096 204.285904,328.277679 
	C203.972305,335.218750 205.790924,342.120300 204.281830,349.159576 
	C203.518387,352.720673 202.921692,356.349640 202.025253,359.890106 
	C201.272171,362.864471 201.556320,364.867218 205.214432,364.910278 
	C205.707855,364.916107 206.225067,364.997162 206.687469,365.164429 
	C208.325775,365.757019 210.862396,365.607819 210.853195,367.957489 
	C210.843216,370.505066 208.267471,371.229950 206.431808,370.973938 
	C200.433182,370.137299 198.644943,373.763916 197.351120,378.481232 
	C196.427917,381.847260 195.193756,385.137878 193.936859,388.399872 
	C192.609970,391.843475 189.820770,392.877899 186.665176,391.472015 
	C183.547012,390.082825 183.757645,387.235168 185.169495,384.643463 
	C187.471344,380.418030 190.223343,376.394531 190.166367,370.688293 
	C183.229385,369.480591 176.233780,368.597321 169.161880,368.283844 
	C167.084244,368.191711 165.784409,369.600128 164.682098,371.081604 
	C161.501404,375.356384 158.377594,379.673981 155.272797,384.004395 
	C154.098053,385.642853 152.879532,387.239288 151.134735,388.283356 
	C148.921494,389.607666 146.624466,389.722595 144.696823,387.835632 
	C142.711334,385.891998 143.465607,383.591583 145.002014,381.997620 
	C157.761581,368.760376 166.518494,352.315460 179.371979,339.182678 
	C184.262619,334.185791 188.167618,328.284149 193.715515,323.887848 
	C195.312119,322.622620 195.762375,320.533417 196.175262,317.845062 
	C173.919708,307.835266 154.255157,293.947479 137.795761,275.542603 
	C121.140900,256.919159 110.996796,235.197235 105.444687,210.239166 
	C104.139145,213.920792 102.934586,216.927353 102.002998,220.016251 
	C98.925354,230.220901 92.548790,235.486649 81.524200,236.628220 
	C66.616737,238.171829 53.315884,235.448837 41.852295,225.710999 
	C35.972088,220.715988 32.212189,214.269592 31.711760,206.339920 
	C31.322386,200.170044 34.227505,195.937027 39.624416,193.057144 
	C47.987183,188.594666 56.813988,188.791870 65.877808,189.676056 
	C77.641930,190.823669 88.456718,194.790497 98.915840,199.967438 
	C101.461319,201.227371 103.767235,202.891586 104.658470,205.995483 
	C102.265701,189.672134 102.054771,173.364014 103.300804,157.102615 
	C104.541252,140.914124 108.120522,125.075981 112.346855,109.174644 
	C110.238693,114.751495 105.656258,118.124069 102.176399,122.379326 
	C98.412994,126.981339 94.281570,130.158997 87.304871,128.740784 
	C88.782364,123.198318 86.610794,120.270111 80.820312,120.322868 
	C80.258614,120.327988 79.732864,119.542236 79.119049,119.333183 
	C75.201889,117.999023 75.314812,115.637672 76.719566,112.258568 
	C79.032402,106.695084 80.635826,100.996284 84.170753,95.788208 
	C86.162476,92.853760 88.989174,92.062805 91.094406,89.882111 
	C98.029579,82.698318 106.329002,77.403404 115.659317,73.833801 
	C117.697716,73.053932 119.340912,71.953598 120.975929,70.598740 
	C113.902519,64.999046 103.033012,66.670097 98.340591,56.874477 
	C93.383911,62.466324 87.387772,52.746674 82.685432,58.812725 
	C79.933823,57.552124 80.664124,55.442108 80.994331,53.552746 
	C81.501068,50.653179 83.734879,48.340885 83.495415,45.057751 
	C83.369308,43.328804 85.583984,43.250381 87.057892,43.121155 
	C93.408501,42.564354 99.544296,44.354183 105.774712,45.028629 
	C114.094963,45.929302 121.444511,49.527298 127.878937,54.919334 
	C128.993378,55.853237 130.052689,57.361458 131.738800,56.328114 
	C133.104614,55.491058 132.444977,53.987217 132.477264,52.680279 
	C132.611786,47.236568 132.946381,41.838543 131.388260,36.458778 
	C130.403046,33.057102 132.871811,29.863239 132.031067,25.633320 
	C139.006454,29.004120 138.667084,34.837429 139.611115,39.977097 
	C140.562256,45.155499 139.633606,50.370331 139.859879,55.938423 
	C143.740845,51.190456 148.875122,48.258781 153.624969,44.775608 
	C160.508636,39.727665 168.264404,37.531609 176.271652,35.723679 
	C178.704590,35.174347 180.168304,37.211975 182.737411,44.033092 
	C169.892059,46.608513 160.296814,55.350517 149.284805,61.559044 
	C149.495880,62.928337 150.905396,63.861786 151.704880,63.470074 
	C155.743835,61.491177 160.214706,64.071953 164.242752,61.969135 
	C166.164597,60.965847 168.493881,60.550133 169.931274,63.090153 
	C170.822632,64.665276 172.329391,64.660492 173.828552,64.810204 
	C183.406891,65.766708 191.404694,70.799660 199.392899,75.415726 
	C205.037399,78.677429 208.267212,83.935295 204.685196,91.410263 
	C204.137238,91.851715 202.947525,91.686478 201.908829,91.126678 
	C196.030670,87.958694 189.408600,89.402946 183.311813,88.026978 
	C177.600128,86.737915 170.878235,86.357086 168.296600,79.232918 
	C167.783478,77.816910 167.411163,75.925400 165.118011,75.617859 
	C163.059311,78.859467 167.966232,80.194366 166.925369,84.081848 
	C161.808990,81.243393 156.925751,78.534271 151.626862,75.594566 
	C151.512924,79.857544 153.267487,82.569122 156.502106,84.197914 
	C156.419495,86.985146 154.088058,85.563400 153.124252,86.474060 
	C155.939438,88.349144 160.588959,86.685150 162.240097,90.806129 
	C160.888565,93.291901 158.702530,91.034012 157.048111,92.266693 
	C160.711639,94.477821 166.018326,93.821877 168.244110,98.760201 
	C164.909027,100.115097 162.397507,96.680008 159.296509,98.668945 
	C162.206818,102.870125 169.518051,100.672531 171.248947,106.508301 
	C168.840668,108.278397 166.655594,105.039536 164.384705,106.651009 
	C164.921997,108.541534 166.894684,108.606606 168.143845,109.552139 
	C170.363754,111.232437 173.193420,112.383179 172.850662,115.979042 
	C172.797928,116.532387 173.203079,117.469627 173.652649,117.678848 
	C179.160416,120.242073 176.431885,126.668854 179.635300,130.353165 
	C180.465179,131.307648 180.258835,133.053604 178.729218,133.759140 
	C177.106262,134.507736 176.322357,133.322281 175.662842,132.070602 
	C175.120636,131.041550 174.607864,129.956589 172.822708,129.826004 
	C170.667282,132.039383 170.930405,135.654968 168.747391,138.232147 
	C167.057693,140.226929 165.883621,140.597855 164.476852,138.955750 
	C161.526489,135.511810 158.174088,132.496857 156.476349,127.869606 
	C155.506805,125.227043 153.139542,122.696144 150.417175,120.551910 
	C146.279266,117.292725 143.189713,112.609459 139.979187,108.290009 
	C136.158981,103.150299 134.005905,97.602448 138.848923,91.338303 
	C125.442345,102.039093 124.058060,179.496353 136.199677,207.596848 
	C162.860962,192.142593 189.028229,195.765839 214.466919,211.172134 
	C216.522736,207.954590 215.950745,205.235275 215.886185,202.675186 
	C215.250534,177.465683 216.497360,152.354492 220.772736,127.497833 
	C225.519882,99.898285 231.393143,72.553192 243.401611,46.972736 
	C246.675629,39.998421 250.933563,33.654823 255.992416,27.823286 
	C258.950226,24.413729 261.445038,24.342350 264.622589,27.726883 
	C274.950928,38.727989 280.393921,52.288227 285.220245,66.185890 
	C293.552124,90.178017 298.302429,115.003822 302.102783,140.032654 
	C302.503326,142.670578 303.202515,143.970657 306.129730,143.579163 
	C334.820679,139.741913 355.644714,152.178772 371.400940,175.160538 
	C376.002075,181.871674 379.233337,189.314117 383.402069,197.588074 
	C392.542267,160.137787 390.350098,124.341194 378.967316,88.424080 
	C377.801117,90.487129 376.991974,92.183174 378.259583,94.067734 
	C382.983948,101.091454 377.333740,105.852821 374.245972,110.914757 
	C373.470551,112.185944 372.232635,114.371620 369.653473,114.791626 
	C367.649048,110.649986 367.769592,105.891029 365.839478,100.556908 
	C365.136353,103.879524 366.327271,105.906326 366.627930,107.998924 
	C366.935089,110.136703 367.417023,112.248802 367.759552,114.382240 
	C368.121246,116.635056 368.552795,118.938385 366.071442,120.873894 
	C362.949432,117.624557 364.075256,113.082764 361.621643,109.229042 
	C360.357788,114.884392 365.582001,119.898338 362.347473,124.928230 
	C359.890411,125.203255 360.809448,122.509094 358.844391,121.907455 
	C361.569611,131.220993 354.720154,135.116547 349.387848,140.926010 
	C347.268250,136.355057 343.343445,133.699661 345.799500,128.721069 
	C342.272003,128.428696 341.292389,130.382828 340.294220,132.265427 
	C339.703308,133.379868 338.995789,134.370712 337.603516,133.706909 
	C336.108124,132.993942 336.119293,131.637909 336.592316,130.262848 
	C338.709259,124.109047 341.429810,118.204414 344.547363,112.518379 
	C346.293610,109.333336 350.463257,108.997925 353.205505,106.415504 
	C350.376068,104.571022 347.947510,108.556274 345.073364,106.521332 
	C347.006531,100.079247 355.097809,103.109261 358.135437,98.247505 
	C354.612732,95.628342 351.959473,100.134163 347.804260,98.935364 
	C350.750641,93.297409 356.712280,94.341553 361.008423,92.150688 
	C358.806335,90.140892 356.181000,93.446465 354.186920,90.740440 
	C356.214233,86.440704 360.925781,88.384354 364.149658,86.718361 
	C362.899475,85.285378 360.745972,87.058502 359.606903,84.857048 
	C362.085938,82.604485 364.976532,80.251762 364.570343,75.936584 
	C358.883728,77.604980 354.922333,82.553749 348.913239,83.814598 
	C348.551422,79.721207 352.076233,78.152260 351.801453,74.708267 
	C349.333740,75.519417 348.869965,77.753250 347.935852,79.474388 
	C344.902496,85.063263 338.167023,87.351761 331.966919,87.920555 
	C326.607605,88.412216 320.756897,87.488625 315.650543,90.575745 
	C313.103912,92.115356 310.116180,93.890785 310.767975,87.998642 
	C311.083496,85.146713 308.089111,81.609886 311.968903,79.593048 
	C314.659271,78.194511 316.309753,75.743134 318.729492,74.064377 
	C322.691040,71.315956 327.849518,71.095047 331.222168,67.379234 
	C331.914825,66.616104 333.764923,66.984436 335.032837,66.647720 
	C339.274597,65.521248 344.250549,66.340256 347.312012,61.968296 
	C347.665619,61.463337 349.092896,61.074200 349.536224,61.367142 
	C353.657745,64.090408 358.673279,61.093113 362.842560,63.609585 
	C364.940338,64.875717 366.157349,63.442825 367.063995,61.611809 
	C355.968445,55.456707 346.513519,46.699001 333.563263,44.127228 
	C333.987579,41.110939 335.767151,39.088898 337.052368,36.849983 
	C337.588165,35.916595 338.396851,35.367020 339.534302,35.582420 
	C347.320038,37.056801 354.948120,39.233448 361.264221,44.099972 
	C363.150848,45.553585 365.093811,46.572357 367.081482,47.696438 
	C371.192993,50.021584 374.183685,53.484104 376.746613,57.577442 
	C376.377899,46.768814 374.302704,35.798546 383.014221,25.776094 
	C386.585510,37.038715 381.518097,47.238491 383.798096,58.125938 
	C397.491302,46.030426 414.249451,42.800476 432.853088,43.606529 
	C430.996429,49.187366 437.902863,53.183769 434.102600,59.559933 
	C431.271942,53.257519 426.907837,57.649807 423.474060,57.619095 
	C421.066071,57.597553 419.596893,57.071812 417.914978,55.908154 
	C414.687469,62.460400 405.421753,67.183296 389.730347,70.001968 
	C396.032227,71.635986 401.456238,73.699112 406.356049,76.182480 
	C413.177490,79.639816 419.656891,84.282509 425.036743,90.019928 
	C425.725830,90.754807 426.236176,91.470390 427.253265,91.818756 
	C432.284515,93.542007 433.105743,98.849312 435.771271,102.485573 
	C437.921844,105.419342 437.616211,109.842857 439.808716,113.159470 
	C441.151001,115.189873 441.159454,117.202202 438.537750,118.387619 
	C436.119843,117.423195 436.870941,113.652023 433.596802,113.571190 
	C434.344574,115.048302 435.175903,116.398735 435.720062,117.856400 
	C436.168091,119.056496 435.442719,120.957481 434.453522,120.403931 
	C431.334259,118.658401 430.069702,121.862076 427.562164,122.264862 
	C428.071808,124.234505 428.556274,126.106995 429.114990,128.266357 
	C423.494904,130.645905 419.651550,127.638596 415.907715,124.530418 
	C411.560059,120.920906 403.173279,108.025475 400.790985,102.448288 
	C403.643463,112.051956 406.900116,121.556938 408.902924,131.374176 
	C410.931274,141.316620 412.799225,151.327103 413.114136,161.486191 
	C413.431152,171.712860 413.183899,181.957016 413.183899,193.292923 
	C416.579132,188.613419 418.318268,184.316116 422.289703,181.456940 
	C426.233673,178.617508 430.159210,178.089615 434.531952,179.341690 
	C441.547028,181.350327 446.732910,185.601181 450.690918,191.814651 
	C455.648285,199.596939 459.321960,207.581802 458.254517,217.091507 
	C457.908875,220.171173 459.393860,221.476044 462.421753,222.062241 
	C467.314362,223.009430 472.107605,224.467422 476.946442,225.695526 
	C480.434662,226.580841 482.987518,228.477539 481.893524,232.376938 
	C480.743042,236.477768 477.211517,235.771210 474.462128,234.609421 
	C467.187714,231.535522 459.188110,230.997055 451.991302,228.529831 
	C444.338898,225.906433 436.515259,224.939926 428.874359,222.846207 
	C425.619995,221.954468 422.969421,221.698364 420.991455,225.570618 
	C419.545471,228.401428 416.172729,227.754929 414.219788,224.578598 
	C412.857727,222.363220 412.174683,219.664551 409.076538,218.268738 
	C406.679413,228.225647 403.611450,237.814758 400.131165,247.431885 
	C402.720184,247.967941 403.935669,246.316589 405.351746,245.380112 
	C414.136719,239.570496 422.435150,239.638397 431.263885,245.889252 
	C443.317841,254.423569 452.206451,264.778381 454.769867,279.759918 
	C455.917816,286.469177 454.510956,292.807343 451.523895,298.631500 
	C448.049988,305.404846 441.830597,307.682312 434.128754,305.783112 
	C424.247650,303.346588 417.426666,296.545532 410.817139,289.400635 
	C403.263489,281.235138 398.615173,271.291260 393.102844,260.837799 
	C388.104828,269.968201 381.579926,277.399719 374.059326,284.875061 
	C381.455902,290.161163 381.894836,300.028198 388.889374,305.332642 
	C391.895386,304.142761 392.496613,301.170929 394.393829,299.388000 
	C395.849243,298.020203 397.499207,296.213837 399.556396,297.692841 
	C401.405365,299.022156 400.147766,301.027008 399.535126,302.717316 
	C399.422668,303.027496 399.231476,303.309540 399.073059,303.602631 
	C393.845123,313.277924 393.862793,313.263000 400.824799,321.548798 
	C403.288574,324.481049 405.642883,327.505249 408.275269,330.765045 
M264.554474,168.120682 
	C270.877380,159.200638 278.985077,152.294647 289.158997,148.402176 
	C294.681702,146.289230 295.287384,143.101639 294.487366,138.021713 
	C292.337982,124.373795 290.066254,110.755882 286.666199,97.360329 
	C282.286469,80.105156 277.826508,62.859653 269.872864,46.792591 
	C269.070679,45.172134 268.910614,42.761684 266.374451,42.633095 
	C264.514374,43.600224 265.700775,46.506313 263.308716,46.933239 
	C260.346405,46.793083 261.663086,42.665455 258.865601,42.153355 
	C254.192551,48.496738 254.729126,57.410744 249.233887,63.087925 
	C246.447464,62.342377 247.289154,60.148262 246.212936,58.616627 
	C242.069397,67.584473 239.798721,76.870590 237.068314,86.462578 
	C239.331070,85.689896 239.378723,82.003899 242.024673,83.572090 
	C244.068863,84.783638 242.886719,86.839279 242.515900,88.569817 
	C235.806763,119.881271 230.657806,151.358582 232.197342,183.571732 
	C232.275269,185.202240 232.990753,187.336395 229.771057,188.635361 
	C226.308090,172.880585 226.804703,157.106903 226.762756,140.070496 
	C224.324112,151.163193 223.882294,161.171799 223.430603,171.077362 
	C222.802200,184.858475 222.637039,198.700119 224.046204,212.494553 
	C224.689545,218.792419 227.593796,221.006393 233.730698,219.116669 
	C239.807770,217.245392 245.983444,216.148651 252.330399,215.723312 
	C265.932220,214.811783 278.779266,217.930801 291.306427,222.779053 
	C295.003845,224.210022 296.594208,223.152786 296.741974,219.236130 
	C296.992828,212.583801 297.328674,205.932526 297.775787,199.290695 
	C298.004913,195.887253 296.607239,194.024338 293.330048,193.185760 
	C282.687714,190.462616 273.661621,194.042496 265.415771,200.363037 
	C262.113037,202.894608 259.326080,206.028793 256.883606,209.436249 
	C256.194885,210.397034 255.339966,211.272400 253.977402,210.892532 
	C252.636932,210.518845 252.282104,209.328735 252.157944,208.170090 
	C251.981186,206.520493 251.811966,204.832855 251.963074,203.191254 
	C253.114639,190.681015 257.146332,179.168304 264.554474,168.120682 
M171.214462,246.970734 
	C183.803680,250.092468 195.145950,256.091553 206.367172,262.325653 
	C226.401810,273.456207 247.492737,279.341156 270.612061,275.877960 
	C278.074982,274.760040 285.227051,272.767090 292.089783,269.520050 
	C280.489990,269.811890 269.097931,269.143616 257.785248,266.661041 
	C241.584702,263.105835 226.410217,256.642670 211.002441,250.813980 
	C193.372345,244.144562 175.671326,237.552917 156.399277,238.369141 
	C147.272888,238.755661 138.657074,241.255219 131.819351,247.916992 
	C130.504211,249.198303 129.870911,250.613159 131.042130,252.349960 
	C132.398941,254.362015 133.901672,253.475021 135.334869,252.527893 
	C146.163818,245.371628 158.002060,244.466705 171.214462,246.970734 
M162.383240,233.839798 
	C169.602066,233.910049 176.589111,235.549286 183.512024,237.295914 
	C201.651840,241.872604 218.724686,249.531693 236.236420,255.919937 
	C253.288086,262.140320 270.671509,266.303009 288.994904,264.869873 
	C295.752197,264.341339 302.344269,263.005829 308.467834,259.841675 
	C298.743561,261.793121 288.983612,261.959961 279.242920,260.585876 
	C260.156342,257.893402 242.959534,249.741821 225.795410,241.596390 
	C209.041199,233.645493 192.085846,226.308884 173.325989,224.703735 
	C156.237549,223.241608 140.987900,227.592407 128.489014,239.828644 
	C127.164406,241.125427 125.368866,242.617035 127.633179,245.547760 
	C137.158478,236.685684 148.637238,233.230209 162.383240,233.839798 
M405.581573,254.386002 
	C403.226959,259.013794 403.321014,263.716492 405.816132,268.144318 
	C409.903137,275.397064 414.856049,282.088928 420.372528,288.310822 
	C424.288391,292.727478 429.109497,295.954651 434.899261,297.556366 
	C439.409882,298.804199 442.882446,297.322876 444.878479,293.224091 
	C446.459534,289.977509 447.159241,286.532654 447.180634,282.714661 
	C447.248993,270.516479 441.039642,261.947693 431.982544,255.016846 
	C420.768585,246.435455 415.115509,246.720932 405.581573,254.386002 
M87.544418,227.163147 
	C93.642860,224.173691 95.663620,218.348907 95.224190,212.581665 
	C94.831642,207.429733 90.387016,204.116272 85.165634,202.651306 
	C81.962082,201.752502 78.802994,200.680832 75.574577,199.887726 
	C66.337189,197.618484 57.046570,195.361099 47.610512,198.765961 
	C41.294834,201.044907 39.833935,203.810272 41.277821,210.264450 
	C41.862926,212.879898 43.040562,215.302567 44.735001,217.394791 
	C55.485931,230.669449 71.410759,232.595612 87.544418,227.163147 
M188.094177,257.427216 
	C183.410889,255.250397 178.685410,253.115875 173.660248,251.907608 
	C162.086426,249.124802 150.577530,248.424500 139.718079,254.545837 
	C138.002258,255.513000 134.476852,256.169006 136.217422,259.373535 
	C137.779984,262.250336 139.226257,265.850220 144.144791,264.046143 
	C149.477798,262.090027 155.100662,261.314392 160.849884,262.054596 
	C170.660461,263.317749 180.105591,265.981903 189.099350,269.994324 
	C209.276535,278.996063 229.978806,285.775482 252.201904,287.600494 
	C263.333984,288.514679 279.834717,283.713135 286.260193,276.388062 
	C263.515381,283.548920 241.286819,282.694977 219.440247,273.410034 
	C208.848618,268.908539 199.120575,262.726135 188.094177,257.427216 
M338.546875,266.089050 
	C346.908600,249.583313 351.714233,232.153931 351.910583,213.334427 
	C337.612030,258.983856 311.092072,295.363373 269.805664,321.843872 
	C278.356140,321.657898 286.174347,322.036530 292.556213,317.954376 
	C312.486542,305.205933 327.433777,287.785126 338.546875,266.089050 
M228.777954,302.449768 
	C214.015182,304.181366 199.274658,303.347809 184.519424,301.641785 
	C199.557648,311.391602 215.076538,317.548279 233.523300,313.994934 
	C257.489777,309.378296 276.708893,296.941681 293.837250,280.393219 
	C273.847504,291.870819 252.634460,299.657745 228.777954,302.449768 
M391.587006,228.028519 
	C391.919037,230.349884 392.251038,232.671265 392.646637,235.437210 
	C394.651550,232.485931 392.578491,228.629150 395.469818,226.618835 
	C397.857086,227.594040 396.657043,230.011398 397.764587,231.173065 
	C404.557770,221.355789 393.594177,216.599335 391.353455,209.438553 
	C395.144775,208.037598 396.328918,212.041809 398.894470,211.894104 
	C401.648682,207.816986 399.025635,202.159943 403.070007,197.883591 
	C405.475372,202.021805 402.580933,205.514740 403.863403,210.219315 
	C404.946320,202.933670 405.714722,197.022446 406.726746,191.153259 
	C407.856354,184.602432 405.833160,179.795135 399.663696,176.884277 
	C398.566956,176.366806 397.140533,175.730179 397.586212,173.826004 
	C400.704041,172.013702 402.925537,176.161774 406.494690,175.013367 
	C407.539368,170.218491 406.633789,165.168274 406.718048,159.864212 
	C404.110107,162.223557 402.475708,161.958435 402.721771,158.554886 
	C402.947144,155.437424 401.300232,151.969223 404.584930,149.251816 
	C405.836700,148.216232 404.996033,146.308762 403.737640,145.334335 
	C401.768616,143.809662 399.612823,142.283813 396.990814,142.525970 
	C394.912933,142.717880 395.314850,144.671997 395.238190,146.104919 
	C394.991821,150.710846 394.632294,155.367523 401.473969,158.781143 
	C395.423096,159.512405 395.075043,162.445267 394.843140,165.587189 
	C394.512787,170.062851 394.003296,174.525803 393.532227,178.990173 
	C393.423340,180.022247 393.450470,180.955750 394.166229,181.796524 
	C395.775970,183.687454 399.591919,184.568512 399.302826,186.870514 
	C398.658234,192.003189 395.274139,187.052231 393.256897,187.854568 
	C393.105804,187.914673 392.958069,187.983170 392.208832,188.307358 
	C390.805603,198.387085 384.526917,208.268585 389.825043,219.396347 
	C390.931305,221.719818 390.894409,224.587555 391.587006,228.028519 
M327.846405,291.317688 
	C321.199677,300.062195 313.236603,307.565277 305.285217,315.274445 
	C313.134125,313.496704 320.387573,310.433746 327.597076,307.191101 
	C331.078491,305.625214 333.617310,303.309937 335.711548,300.127014 
	C348.787750,280.253235 356.860962,258.618164 358.481384,234.817978 
	C359.022888,226.864822 358.566956,218.843781 358.566956,210.853760 
	C358.082397,210.818100 357.597839,210.782425 357.113281,210.746750 
	C355.499176,240.343063 346.507935,267.237396 327.846405,291.317688 
M298.014862,293.515930 
	C312.963379,278.906342 325.537781,262.593658 334.091949,243.369339 
	C319.806702,259.807159 306.564972,277.134216 289.565155,291.042786 
	C272.547943,304.965515 253.949036,315.473022 231.927475,319.213745 
	C235.050949,320.202087 237.976517,321.297760 240.905762,321.307770 
	C247.901443,321.331635 255.096924,324.389099 261.881866,320.429199 
	C274.723938,312.934021 286.862427,304.472260 298.014862,293.515930 
M249.098572,291.299774 
	C230.559189,289.501740 212.848175,284.638885 195.754288,277.265015 
	C184.140106,272.254974 172.436447,267.312134 159.527023,266.749207 
	C154.507141,266.530273 149.469910,266.670258 144.607468,269.210114 
	C148.059158,275.075134 151.723160,278.879517 158.806961,277.969147 
	C164.232178,277.271912 169.704987,278.101929 175.148163,279.283722 
	C186.753632,281.803375 197.682037,286.356934 208.939133,289.912109 
	C221.921692,294.012207 234.956543,297.253235 248.553452,292.784454 
	C249.143616,292.590515 249.702347,292.300934 250.275711,292.055908 
	C250.080582,291.829163 249.885452,291.602417 249.098572,291.299774 
M209.561890,229.815720 
	C219.403778,234.087570 229.245682,238.359406 239.087570,242.631256 
	C228.681000,235.230759 217.999283,228.496506 207.231140,221.903412 
	C204.260223,220.084366 201.062027,218.623260 197.916626,217.104507 
	C172.512741,204.838348 143.402084,213.619293 126.160492,231.904007 
	C124.778084,233.370041 122.957222,234.765732 122.921219,237.241638 
	C125.197655,237.690414 126.057327,235.963318 127.218155,234.972610 
	C137.876801,225.875992 150.217789,221.404572 164.183823,220.685333 
	C179.871155,219.877472 194.494385,223.866959 209.561890,229.815720 
M367.558533,190.888016 
	C364.712219,184.647583 361.393341,178.700104 356.710510,173.444504 
	C371.662720,207.913803 375.866089,243.231552 365.884003,279.880127 
	C374.450500,273.117401 381.329468,266.291107 380.952454,254.042862 
	C380.284302,232.334366 377.305267,211.337234 367.558533,190.888016 
M117.895493,164.190674 
	C118.787827,163.908417 120.231804,163.870056 120.482101,163.303925 
	C121.995705,159.880447 116.657600,160.550781 116.999352,157.268600 
	C120.824203,155.159775 121.311203,151.351456 120.826714,147.217392 
	C120.629341,145.533218 121.603432,142.975296 119.113487,142.626114 
	C116.387390,142.243820 113.963211,143.809814 112.142693,145.845688 
	C110.773193,147.377197 111.478485,148.615265 112.846321,150.090866 
	C114.645355,152.031662 114.562904,160.095154 113.151558,161.447067 
	C108.763649,165.650223 107.988708,169.539230 110.370049,175.221375 
	C113.423645,176.155609 115.946388,171.196350 119.425545,174.376587 
	C117.801216,177.174881 114.763016,177.849304 112.806366,179.835022 
	C111.422256,181.239670 109.348763,182.318939 109.548477,184.584793 
	C110.233368,192.355042 110.469933,200.195374 112.426369,208.052429 
	C113.863762,204.785202 109.816818,201.135498 114.029984,197.999985 
	C117.557190,202.180725 114.840698,207.755768 117.516632,211.746460 
	C120.239075,211.432205 121.453529,207.440475 125.170074,209.535294 
	C123.788063,214.675858 117.515221,217.450150 117.370911,223.960876 
	C121.241737,220.189758 124.561707,216.948776 127.890450,213.716827 
	C128.731064,212.900650 129.822723,212.077240 129.508331,210.803223 
	C127.620705,203.153458 125.633759,195.528198 123.750015,188.167999 
	C120.915695,187.882187 118.471519,190.765289 117.066025,188.154221 
	C115.718513,185.650879 118.803185,184.628906 120.267891,183.247406 
	C121.801758,181.800690 122.934425,180.363342 122.579231,178.073608 
	C122.109108,175.042999 121.797028,171.987900 121.407921,168.870407 
	C117.762566,170.893784 117.704636,170.824692 117.895493,164.190674 
M434.719666,215.705688 
	C438.626923,216.467728 442.546631,217.171951 446.437195,218.011368 
	C449.206787,218.608932 450.672821,217.692551 450.525970,214.787125 
	C449.936798,203.129898 444.129517,194.455414 434.834961,187.912292 
	C431.827637,185.795227 428.882935,186.345596 426.427399,189.156708 
	C421.388885,194.924728 419.288635,201.731125 419.170502,209.286667 
	C419.126617,212.094711 420.830933,213.014175 423.149475,213.462601 
	C426.730072,214.155121 430.309479,214.854050 434.719666,215.705688 
M347.592651,201.026962 
	C348.493805,195.135178 345.490753,190.706223 341.866547,186.714615 
	C332.058685,175.912582 319.426147,173.725754 305.761566,175.746338 
	C298.120087,176.876297 290.953613,179.621323 283.753693,184.453903 
	C308.513641,182.780945 331.903961,181.984344 345.228180,207.721863 
	C347.106262,206.108887 346.702118,203.735229 347.592651,201.026962 
M304.217773,171.335281 
	C320.660706,168.872620 335.323273,172.325546 347.693176,186.070251 
	C347.111572,176.836426 342.609222,171.755234 337.125977,167.592743 
	C327.832306,160.537674 317.281189,159.754059 306.297363,162.582901 
	C294.190948,165.700867 284.534210,172.614410 276.411957,181.855423 
	C285.057098,177.418701 293.760773,173.338730 304.217773,171.335281 
M311.698792,188.741684 
	C310.940155,188.631851 310.141754,188.117020 309.198578,189.275665 
	C326.201904,199.766403 330.360352,215.235306 325.338165,234.175507 
	C346.564667,224.526108 342.989380,205.482071 331.125793,196.521317 
	C325.545685,192.306549 319.139099,190.149857 311.698792,188.741684 
M356.022217,269.314331 
	C352.866119,278.903870 348.496857,287.971893 344.041565,297.146027 
	C349.925812,293.018127 357.335846,290.908325 359.819672,283.018677 
	C367.258545,259.389709 368.607117,235.412140 364.192810,211.086929 
	C363.635254,208.014664 362.632019,205.023285 361.835266,201.994415 
	C365.476959,224.725449 362.875549,246.792831 356.022217,269.314331 
M187.644669,208.718582 
	C195.501053,210.519577 202.834091,213.446793 209.641510,217.893051 
	C223.852280,227.174835 237.647247,237.233322 253.763733,243.185318 
	C260.923615,245.829514 268.134857,248.367798 276.086029,248.874451 
	C275.359772,247.583496 274.310486,247.493195 273.382935,247.272598 
	C261.279175,244.393921 250.102219,239.255722 239.277893,233.274033 
	C226.313965,226.109970 214.187592,217.531525 200.778656,211.084549 
	C181.664688,201.894653 162.649231,201.420212 143.489853,210.542328 
	C134.465500,214.838989 125.708420,222.451584 123.222908,227.818451 
	C147.098526,208.770264 165.514999,203.186081 187.644669,208.718582 
M183.893570,346.368347 
	C180.560226,350.947510 176.158463,354.785126 173.510086,360.287720 
	C179.001923,361.783478 183.943268,362.345154 188.912186,362.766754 
	C191.210297,362.961731 193.024551,362.220642 193.402542,359.845215 
	C194.578049,352.457703 195.605942,345.045959 196.602173,337.631653 
	C196.727097,336.701843 196.469986,335.616089 195.104095,335.148529 
	C190.357254,337.425140 187.611282,341.899475 183.893570,346.368347 
M299.746277,160.058914 
	C314.613647,154.518295 328.727264,155.857956 342.191467,165.467911 
	C341.920074,158.188324 337.077637,156.437195 332.118286,154.783859 
	C308.152130,146.794052 283.367767,159.045258 269.822510,179.127869 
	C269.777649,179.194351 270.116058,179.519333 270.430481,179.922256 
	C278.694061,171.540344 287.878632,164.500366 299.746277,160.058914 
M188.392273,287.193298 
	C178.636902,284.342896 168.941147,281.064056 158.389008,283.459442 
	C176.245026,290.674896 195.189728,293.147339 214.105560,295.852936 
	C205.791687,293.037750 197.477814,290.222565 188.392273,287.193298 
M269.272034,224.590988 
	C275.764099,229.007690 282.048035,233.652573 286.899231,239.962723 
	C290.479492,244.619705 295.989105,245.297729 301.411469,241.556168 
	C291.959015,231.759583 280.991180,225.038376 267.302673,223.077393 
	C267.791260,223.466721 268.279846,223.856033 269.272034,224.590988 
M270.947174,230.543854 
	C264.296173,226.242416 257.698486,221.803940 249.284042,221.831635 
	C256.491638,227.269058 263.549622,232.549515 269.692688,239.136429 
	C272.107361,241.725555 276.577942,242.666367 281.013214,241.308945 
	C278.816437,236.604080 275.057739,233.888794 270.947174,230.543854 
M302.364807,253.170425 
	C282.190552,256.861359 263.200104,252.405701 244.652374,244.681519 
	C252.820999,248.900406 261.356659,251.954636 270.222443,254.122116 
	C285.551697,257.869751 300.789154,258.716187 315.791138,252.669296 
	C319.090607,251.339355 322.506653,250.049652 324.453156,245.621460 
	C317.209930,249.114471 310.408386,251.670547 302.364807,253.170425 
M400.914001,128.835846 
	C400.017914,128.123993 399.121826,127.412148 398.319763,126.774971 
	C398.188934,124.757698 401.457214,124.096725 399.718658,121.605309 
	C398.579742,120.662392 397.457367,123.850075 395.950470,121.780151 
	C394.953186,119.147591 396.196472,116.720490 397.047211,113.999527 
	C397.812195,111.552864 396.111725,108.863853 395.037415,106.454140 
	C394.049927,104.239098 394.043396,100.542747 389.851135,101.836693 
	C389.391357,106.522041 391.514526,109.711533 394.660278,112.258308 
	C391.423035,117.821945 393.802917,136.828018 397.782593,138.350449 
	C399.336182,137.328217 397.068848,134.446716 399.587677,134.025497 
	C402.663025,134.433609 399.110107,139.198471 403.431000,138.822769 
	C403.777618,135.431091 402.499512,132.425186 400.914001,128.835846 
M114.893944,136.943527 
	C115.221451,135.895706 115.135803,134.530670 116.611755,134.468781 
	C118.887054,135.057190 117.148819,137.763107 118.958443,138.508591 
	C122.314323,135.447052 124.233757,117.539841 121.709885,111.963493 
	C125.329620,109.626343 126.530998,106.124985 126.214943,101.876740 
	C125.518005,101.751785 124.940109,101.448265 124.578415,101.614662 
	C121.424034,103.065948 118.426598,113.074768 120.183784,116.118408 
	C121.480133,118.363815 121.347946,120.421425 119.786362,122.169304 
	C117.746941,122.545769 118.162277,120.408508 117.281578,119.793533 
	C115.161453,122.678429 117.089584,124.459305 118.544518,126.554527 
	C113.804115,128.669983 113.372482,132.860748 113.062653,137.020172 
	C112.958786,138.414520 113.715584,138.844376 114.893944,136.943527 
M304.004852,221.975143 
	C303.817078,222.949646 303.641724,223.926758 303.439056,224.898178 
	C302.913300,227.418243 303.856415,229.200317 306.315247,229.861267 
	C309.280731,230.658432 309.539520,227.905396 310.045410,226.287201 
	C311.691589,221.021484 312.297485,215.625443 310.789246,210.162079 
	C309.930359,207.050720 309.201172,203.891327 305.753998,202.051666 
	C303.909943,208.565643 304.345795,214.856567 304.004852,221.975143 
M318.178894,217.389481 
	C317.838043,222.238953 316.502441,226.847824 314.768890,231.355255 
	C314.023010,233.294617 314.082855,235.046783 316.182800,235.984680 
	C318.522644,237.029694 319.002869,234.897232 319.673370,233.520905 
	C322.592743,227.528366 323.710999,221.132263 322.429382,214.625244 
	C321.069183,207.719437 318.124481,201.522522 312.150635,197.287552 
	C316.009460,203.141983 318.090912,209.489090 318.178894,217.389481 
M255.694031,232.239700 
	C250.521790,228.251022 245.474701,223.983078 238.260208,224.458542 
	C243.593719,228.846283 249.466278,232.270035 256.048767,234.221756 
	C257.388763,234.619080 256.423157,233.237259 255.694031,232.239700 
M383.255157,220.432556 
	C382.795166,218.912308 382.335205,217.392059 381.875214,215.871811 
	C384.629364,229.384521 386.231201,242.960037 385.747070,256.761383 
	C387.539551,244.718353 385.899567,232.919907 383.255157,220.432556 
M308.507629,237.741547 
	C306.590424,236.512589 304.792114,234.993469 301.861633,234.643585 
	C307.306244,241.646271 307.513885,241.770599 310.876801,240.323105 
	C310.710724,239.208191 309.743866,238.773849 308.507629,237.741547 
z"/>
<path fill="#fff" opacity="1.000000" stroke="none" 
	d="
M272.525391,397.100372 
	C267.950378,402.296417 264.936920,401.790680 261.773438,396.121094 
	C256.189301,386.113220 250.371262,376.235901 244.657990,366.299988 
	C244.326462,365.723450 244.056152,365.111694 243.757370,364.516327 
	C243.334381,364.660278 242.911377,364.804199 242.488388,364.948120 
	C240.889816,373.322083 239.170166,381.675568 237.751572,390.079926 
	C237.175476,393.492981 237.205460,397.014435 237.049271,400.490601 
	C236.898010,403.857422 235.418076,406.015839 231.858063,405.688660 
	C228.536194,405.383240 227.405396,403.056519 227.872284,399.966187 
	C228.915421,393.061798 229.942505,386.152130 231.169556,379.279144 
	C232.425781,372.242767 233.846161,365.233368 235.337234,358.242584 
	C235.815369,356.000824 235.595444,354.018036 234.656067,351.959076 
	C233.870148,350.236511 233.609940,348.298218 235.108414,346.817657 
	C236.812408,345.134033 238.465240,346.432800 240.095428,347.249207 
	C246.021042,350.216797 248.353424,356.105682 251.395447,361.338837 
	C256.142151,369.504517 260.617798,377.827820 265.386169,386.404205 
	C267.775116,384.564301 267.886902,382.370758 267.944366,380.332581 
	C268.295685,367.872406 268.727356,355.402924 267.167175,342.984344 
	C266.797394,340.041107 267.017212,337.306915 270.591125,337.015320 
	C274.001221,336.737030 274.984741,339.207184 275.215210,342.224609 
	C276.281403,356.183380 276.498077,370.149231 275.192627,384.090363 
	C274.793854,388.348724 273.551666,392.528107 272.525391,397.100372 
z"/>
<path fill="#fff" opacity="1.000000" stroke="none" 
	d="
M166.870605,308.319702 
	C167.622101,309.461273 168.229050,310.272461 168.643387,311.172302 
	C169.311050,312.622406 169.466171,314.120453 168.062164,315.260254 
	C166.801956,316.283325 165.451279,315.744507 164.363159,314.978973 
	C162.737808,313.835419 161.145416,312.592468 159.751480,311.181824 
	C154.677963,306.047516 147.924637,303.868347 141.707382,300.745605 
	C140.755295,300.267426 139.749924,300.387787 138.819901,300.870087 
	C133.400421,303.680634 129.523651,308.371979 125.171921,312.427460 
	C123.083748,314.373474 125.368446,316.145416 127.100052,317.073334 
	C130.762390,319.035767 134.569717,320.728699 138.327148,322.511993 
	C139.379227,323.011353 140.509628,323.358856 141.525330,323.918854 
	C143.505753,325.010864 146.591858,326.018707 145.544952,328.711121 
	C144.379440,331.708588 141.543747,329.898163 139.453705,329.165649 
	C132.870728,326.858459 126.285889,324.547333 119.778519,322.038635 
	C117.591499,321.195526 115.932777,321.375214 114.397346,323.075562 
	C114.285835,323.199066 114.167068,323.316498 114.046379,323.431183 
	C104.519157,332.482910 105.384697,338.249908 117.412193,343.975647 
	C122.188362,346.249359 127.066528,348.544617 132.560577,348.611176 
	C133.944366,348.627930 135.342499,348.643219 135.811005,350.253906 
	C136.292023,351.907654 135.426270,353.153473 134.205917,354.152924 
	C132.816284,355.290955 131.082047,355.606262 129.469070,355.190796 
	C120.793396,352.956207 111.907799,351.250122 104.711693,345.246674 
	C97.887863,339.553802 96.739227,333.687836 101.198662,325.848297 
	C104.781120,319.550507 109.489487,314.128021 115.013779,309.527893 
	C121.495613,304.130402 128.068390,298.978210 132.942032,291.858978 
	C135.147354,288.637512 139.741226,288.626556 142.534195,290.613037 
	C149.819824,295.795013 157.856186,299.893005 164.601517,305.834900 
	C165.346832,306.491425 165.963348,307.294159 166.870605,308.319702 
z"/>
<path fill="#fff" opacity="1.000000" stroke="none" 
	d="
M300.102905,344.350220 
	C302.954895,335.126740 306.485199,326.981537 316.736664,324.469391 
	C320.038239,323.660339 323.375336,323.351624 326.600372,324.256714 
	C328.984558,324.925842 331.673859,326.298615 330.801666,329.425476 
	C330.073517,332.035706 327.526093,332.692230 325.042725,331.985718 
	C319.786987,330.490448 315.341431,331.763031 312.186096,336.078064 
	C308.357391,341.313904 305.713745,347.043671 308.375061,353.759888 
	C310.073639,358.046539 314.751129,359.987183 320.443573,359.636932 
	C327.375854,359.210388 334.425568,358.875153 341.134430,361.120331 
	C347.365875,363.205750 349.411469,368.292725 346.898346,374.235474 
	C340.527618,389.300232 328.853790,396.417511 312.581329,395.249420 
	C308.379089,394.947784 304.807007,393.432800 302.120056,390.188202 
	C300.904480,388.720337 300.228119,386.894470 301.801208,385.212250 
	C303.343811,383.562653 304.863586,384.450256 306.141327,385.667450 
	C313.732819,392.899414 333.645355,387.050964 338.271667,373.801331 
	C339.717621,369.660126 336.892548,366.921326 331.500092,367.637878 
	C326.810699,368.261017 322.242157,368.142242 317.596771,367.525330 
	C303.987152,365.717926 298.252441,358.343719 300.102905,344.350220 
z"/>
<path fill="#fff" opacity="1.000000" stroke="none" 
	d="
M97.798233,257.238098 
	C87.020630,257.121918 78.128021,260.753082 70.670540,267.783630 
	C64.991005,273.138031 64.497078,279.657288 69.397850,285.570312 
	C73.871834,290.968384 79.481209,294.724640 86.599205,295.814270 
	C87.257004,295.914978 87.934395,295.959137 88.565285,296.151947 
	C91.304962,296.989380 93.908554,298.594696 93.448235,301.612793 
	C92.877869,305.352386 89.216377,304.732422 86.913895,304.062195 
	C77.428955,301.301086 68.246338,297.809570 61.589184,289.895477 
	C55.603012,282.778961 55.555466,271.879486 62.056084,265.219971 
	C75.400429,251.549423 91.236664,245.512039 110.097412,251.622864 
	C118.140160,254.228699 125.401199,258.249268 126.788086,268.172058 
	C127.286713,271.739624 126.102310,274.334747 124.230431,276.934692 
	C122.582001,279.224243 120.881355,281.481415 119.101837,283.669983 
	C117.382706,285.784302 115.093430,286.379211 113.001595,284.557343 
	C110.885056,282.713959 111.860291,280.626923 113.567680,278.926941 
	C116.035667,276.469666 118.818840,274.315063 118.485970,270.179352 
	C118.039597,264.633423 114.955078,261.327881 109.957924,259.639069 
	C106.173378,258.360046 102.258530,257.528625 97.798233,257.238098 
z"/>
<path fill="#fff" opacity="1.000000" stroke="none" 
	d="
M255.983246,98.964622 
	C255.896729,88.847252 256.425415,79.278893 257.557739,68.456123 
	C262.937073,75.138611 264.887390,139.654999 260.922791,146.907196 
	C257.969727,146.092850 258.077942,143.529007 257.965363,141.341461 
	C257.246887,127.382408 256.633148,113.417953 255.983246,98.964622 
z"/>
<path fill="#fff" opacity="1.000000" stroke="none" 
	d="
M283.122192,110.121887 
	C283.550629,116.892578 285.514313,123.249023 283.173187,129.783218 
	C279.501129,129.082260 279.294556,126.274368 278.987244,124.012779 
	C275.913513,101.392181 271.740234,78.996284 265.751068,56.954117 
	C265.367218,55.541504 264.552521,53.710133 266.666229,53.218548 
	C268.550476,52.780319 269.037170,54.715092 269.559357,56.068596 
	C274.786255,69.616364 278.459381,83.599380 281.113434,97.858452 
	C281.844086,101.783943 282.431000,105.736183 283.122192,110.121887 
z"/>
<path fill="#fff" opacity="1.000000" stroke="none" 
	d="
M239.023773,169.250092 
	C238.896927,173.423248 240.062225,177.275772 238.054626,180.868881 
	C233.163254,178.312683 232.061981,151.792328 237.031647,143.834045 
	C239.534973,152.634674 237.043365,160.955475 239.023773,169.250092 
z"/>
</svg>